<?xml version="1.0" encoding="utf-8"?>
<!-- Generator: Adobe Illustrator 25.1.0, SVG Export Plug-In . SVG Version: 6.00 Build 0)  -->
<svg version="1.1" id="Layer_1" xmlns="http://www.w3.org/2000/svg" xmlns:xlink="http://www.w3.org/1999/xlink" x="0px" y="0px"
	 viewBox="0 0 520 344" style="enable-background:new 0 0 520 344;" xml:space="preserve">
<style type="text/css">
	.st0{fill:#FFFFFF;}
</style>
<g>
	<path class="st0" d="M99.8,210.6h-22v-36.8H1.7v-17.1L56.3,29.3h23.8L25.2,153.6h52.6v-56h22v56h29v20.2h-29V210.6z"/>
</g>
<g>
	<path class="st0" d="M488.3,210.6h-22v-36.8h-76.2v-17.1l54.7-127.4h23.8l-54.9,124.3h52.6v-56h22v56h29v20.2h-29V210.6z"/>
</g>
<path id="ic_search_24px" class="st0" d="M360.2,215.7h-13.4l-4.8-4.6c39.8-46.4,34.5-116.2-11.9-156S213.9,20.6,174.1,67
	S139.7,183.2,186,223c41.4,35.6,102.7,35.6,144.1,0l4.6,4.8v13.4l85,84.8l25.3-25.3L360.2,215.7z M258.3,215.7
	c-42.2,0-76.5-34.2-76.5-76.5s34.2-76.5,76.5-76.5s76.5,34.2,76.5,76.5c0.1,42.2-34.1,76.4-76.3,76.5
	C258.4,215.7,258.4,215.7,258.3,215.7L258.3,215.7z"/>
</svg>
